<?xml version="1.0" encoding="utf-8"?>
<!-- Generator: Adobe Illustrator 26.0.3, SVG Export Plug-In . SVG Version: 6.00 Build 0)  -->
<svg version="1.1" id="Layer_1" xmlns="http://www.w3.org/2000/svg" xmlns:xlink="http://www.w3.org/1999/xlink" x="0px" y="0px"
	 viewBox="0 0 571 571" style="enable-background:new 0 0 571 571;" xml:space="preserve">
<style type="text/css">
	.st0{fill:#00CFFF;}
</style>
<g>
	<path class="st0" d="M373.5,73.4c2.9-25.6-4.5-34.9-11.3-38.1c-21.1-10.1-53.2,28-72.7,69c-8.9,18.7-15.3,37.5-18.2,53.9
		l-76.6,43.4c-5.5,3.1-9.3,8.3-10.8,14.5l-59.3,214.7c-0.8,3-2.2,7.9,0.8,13.2c3.2,5.8,10.7,10.1,23.5,13.7l127.9,35.3
		c6.6,1.8,12.1,2.8,16.7,2.8c4.2,0,7.7-0.8,10.5-2.4c5.3-3,6.6-8,7.4-10.9l59.1-214.2l0.3-1.2l0.2-0.7c1.4-5.8,0.6-11.8-2.3-16.9
		l-40.6-71.6c9.3-11.8,18.4-26.4,26.1-42.6C364.6,113.5,371.4,91.5,373.5,73.4z M359.4,254.7c1.6,2.8,2,6.2,1.1,9.4l-59.4,215.5
		c-0.7,2.5-1.2,3.7-2.4,4.5c-1.7,1-6.5,2.1-19.1-1.4l-127.9-35.3c-12.6-3.5-16.1-6.9-17.1-8.6c-0.7-1.3-0.5-2.5,0.2-5l59.3-214.9
		c0.8-3.6,2.9-6.3,5.9-8.1l69.6-39.4l11.6-6.6l10.7-6c1.6-0.8,3.4-1.2,5.2-1.2c4.2,0,8.5,2.3,10.8,6.3l7.3,12.8
		c-1.6,1.8-3.1,3.5-4.7,5c-0.9,0.9-1.8,1.8-2.6,2.5c-5.4-5.3-12.7-8.7-20.9-8.7c-2.3,0-4.5,0.3-6.7,0.8c-3.9,0.8-7.5,2.5-10.7,4.9
		c-7.4,5.3-12.3,14.1-12.3,23.9c0,16.3,13.3,29.7,29.7,29.7c16.3,0,29.7-13.3,29.7-29.7c0-4.2-0.9-8.3-2.5-12
		c1.3-1.2,2.7-2.5,4.1-3.9c0.8-0.9,1.7-1.8,2.6-2.7L359.4,254.7z M281.4,204.2c2,1,4.5,1.6,7.4,1.6c4.4,0,9.9-1.5,16.5-5.9
		c0.4,1.6,0.7,3.3,0.7,5.1c0,10.5-8.5,19-19.1,19c-10.5,0-19-8.5-19-19c0-4.5,1.5-8.5,4.1-11.8C274.3,199.4,277.9,202.6,281.4,204.2
		z M281.3,186.8c1.8-0.5,3.7-0.8,5.6-0.8c4.8,0,9.2,1.8,12.6,4.8c-6.4,4.2-10.9,4.9-13.5,3.7C284.2,193.5,282.4,191.1,281.3,186.8z
		 M322.3,167.6l-5.2-9.2c-6-10.6-19.2-14.6-30.2-9.1l-3.1,1.8c3.2-13.2,8.4-27.6,15.4-42.1c20.3-42.3,44.4-64.5,55.6-64.5
		c1,0,2,0.2,2.8,0.6c3.8,1.8,7.2,9.9,5.2,27.1c-1,8.4-3.1,17.9-6.2,27.7c-3.1,9.9-7.3,20.3-12.2,30.6
		C337.7,144.4,330.1,157.1,322.3,167.6z"/>
</g>
<g>
	<path class="st0" d="M247.1,317.3c-0.9-4.1-3-7.7-6.2-10.7c-3.2-3-7.5-5.3-12.8-6.9l-14.7-4.4l0,0l-6.3-1.9l-20,66.1l6.3,1.9l0,0
		l14.6,4.4c5.3,1.6,10.1,2,14.5,1.3c4.3-0.7,8-2.5,11.1-5.5c3-3,5.3-6.9,6.8-11.9l5.7-18.7C247.7,326,248,321.4,247.1,317.3z
		 M236.8,327.8l-5.9,19.5c-1.4,4.6-3.8,7.8-7.3,9.5c-3.4,1.7-7.6,1.8-12.5,0.4l-12-3.6l14.6-48.5l12,3.6c4.9,1.5,8.3,3.9,10.2,7.2
		C238,319.2,238.2,323.2,236.8,327.8z"/>
	<path class="st0" d="M288.7,390.1l10,3l-4.4-73.5l-7.9-2.4L242.1,376l10,3l9.4-13l26.7,8.1L288.7,390.1z M267.1,358.1l19.4-26.9
		l1.3,33.1L267.1,358.1z"/>
</g>
</svg>
