<?xml version="1.0" encoding="utf-8"?>
<!-- Generator: Adobe Illustrator 26.0.3, SVG Export Plug-In . SVG Version: 6.00 Build 0)  -->
<svg version="1.1" id="Layer_1" xmlns="http://www.w3.org/2000/svg" xmlns:xlink="http://www.w3.org/1999/xlink" x="0px" y="0px"
	 viewBox="0 0 571 571" style="enable-background:new 0 0 571 571;" xml:space="preserve">
<style type="text/css">
	.st0{fill:#00CFFF;}
</style>
<g>
	<g>
		<path class="st0" d="M287.1,299.5c-49.3,0-89.5-40.1-89.5-89.5s40.1-89.5,89.5-89.5c49.3,0,89.5,40.1,89.5,89.5
			S336.4,299.5,287.1,299.5z M287.1,130.8c-43.7,0-79.2,35.5-79.2,79.2s35.5,79.2,79.2,79.2c43.7,0,79.2-35.5,79.2-79.2
			S330.8,130.8,287.1,130.8z"/>
	</g>
</g>
<g>
	<path class="st0" d="M150.8,243.5h24.9c0.9,0,1.7-0.8,1.7-1.7v-53.5c0-0.9-0.8-1.7-1.7-1.7h-24.9c-0.9,0-1.7,0.8-1.7,1.7v53.5
		C149.1,242.7,149.9,243.5,150.8,243.5z"/>
</g>
<g>
	<path class="st0" d="M398.5,243.5h24.9c0.9,0,1.7-0.8,1.7-1.7v-53.5c0-0.9-0.8-1.7-1.7-1.7h-24.9c-0.9,0-1.7,0.8-1.7,1.7v53.5
		C396.8,242.7,397.6,243.5,398.5,243.5z"/>
</g>
<g>
	<path class="st0" d="M411,208.9c-4.2,0-7.5-3.4-7.5-7.5c0-64.1-52.2-116.3-116.3-116.3c-64.1,0-116.3,52.2-116.3,116.3
		c0,4.2-3.4,7.5-7.5,7.5c-4.2,0-7.5-3.4-7.5-7.5c0-72.5,58.9-131.4,131.4-131.4c72.5,0,131.4,58.9,131.4,131.4
		C418.5,205.5,415.1,208.9,411,208.9z"/>
</g>
<g>
	<path class="st0" d="M202.8,286.5c-0.3,0-0.6,0-0.9-0.1c-38.8-6.7-43.7-47.1-43.8-47.5c-0.3-2.8,1.7-5.4,4.5-5.7
		c2.8-0.3,5.4,1.7,5.7,4.5c0.2,1.5,4.2,33.2,35.3,38.5c2.8,0.5,4.7,3.1,4.2,5.9C207.4,284.8,205.3,286.5,202.8,286.5z"/>
</g>
<g>
	<path class="st0" d="M410.6,486.5h-247c-20.8,0-37.7-16.9-37.7-37.7v-62.2c0-36.8,30-66.8,66.8-66.8h37.7c11.4,0,22.2,6.1,28,16
		l28.7,48.6l28.7-48.6c5.8-9.8,16.5-16,28-16h37.7c36.8,0,66.8,30,66.8,66.8v62.2C448.3,469.6,431.4,486.5,410.6,486.5z
		 M192.7,330.1c-31.2,0-56.5,25.3-56.5,56.5v62.2c0,15.1,12.3,27.4,27.4,27.4h247c15.1,0,27.4-12.3,27.4-27.4v-62.2
		c0-31.2-25.3-56.5-56.5-56.5h-37.7c-7.8,0-15.2,4.2-19.1,10.9l-33.1,56c-1.8,3.1-7,3.1-8.8,0l-33.1-56c-4-6.7-11.3-10.9-19.1-10.9
		H192.7z"/>
</g>
</svg>
