<?xml version="1.0" encoding="utf-8"?>
<!-- Generator: Adobe Illustrator 27.0.1, SVG Export Plug-In . SVG Version: 6.00 Build 0)  -->
<svg version="1.1" id="Layer_1" xmlns="http://www.w3.org/2000/svg" xmlns:xlink="http://www.w3.org/1999/xlink" x="0px" y="0px"
	 viewBox="0 0 141.73 141.73" style="enable-background:new 0 0 141.73 141.73;" xml:space="preserve">
<style type="text/css">
	.st0{fill:#00CFFF;}
</style>
<g>
	<polygon class="st0" points="40.06,37.45 31.69,37.45 31.69,41.22 40.06,41.22 40.06,43.23 48.7,43.23 48.7,35.43 40.06,35.43 	"/>
	<polygon class="st0" points="40.06,49.95 31.69,49.95 31.69,53.73 40.06,53.73 40.06,55.74 48.7,55.74 48.7,47.94 40.06,47.94 	"/>
	<polygon class="st0" points="40.06,62.46 31.69,62.46 31.69,66.23 40.06,66.23 40.06,68.25 48.7,68.25 48.7,60.44 40.06,60.44 	"/>
	<polygon class="st0" points="40.06,74.97 31.69,74.97 31.69,78.74 40.06,78.74 40.06,80.76 48.7,80.76 48.7,72.95 40.06,72.95 	"/>
	<polygon class="st0" points="40.06,87.47 31.69,87.47 31.69,91.25 40.06,91.25 40.06,93.26 48.7,93.26 48.7,85.46 40.06,85.46 	"/>
	<polygon class="st0" points="40.06,99.98 31.69,99.98 31.69,103.75 40.06,103.75 40.06,105.77 48.7,105.77 48.7,97.97 40.06,97.97 
			"/>
	<polygon class="st0" points="110.51,37.45 110.51,35.43 101.88,35.43 101.88,43.23 110.51,43.23 110.51,41.22 118.88,41.22 
		118.88,37.45 	"/>
	<polygon class="st0" points="110.51,47.94 101.88,47.94 101.88,55.74 110.51,55.74 110.51,53.73 118.88,53.73 118.88,49.95 
		110.51,49.95 	"/>
	<polygon class="st0" points="110.51,60.44 101.88,60.44 101.88,68.25 110.51,68.25 110.51,66.23 118.88,66.23 118.88,62.46 
		110.51,62.46 	"/>
	<polygon class="st0" points="110.51,72.95 101.88,72.95 101.88,80.76 110.51,80.76 110.51,78.74 118.88,78.74 118.88,74.97 
		110.51,74.97 	"/>
	<polygon class="st0" points="110.51,85.46 101.88,85.46 101.88,93.26 110.51,93.26 110.51,91.25 118.88,91.25 118.88,87.47 
		110.51,87.47 	"/>
	<polygon class="st0" points="110.51,97.97 101.88,97.97 101.88,105.77 110.51,105.77 110.51,103.75 118.88,103.75 118.88,99.98 
		110.51,99.98 	"/>
	<path class="st0" d="M54.17,26.24L50.41,30v81.15l3.76,3.76h41.25l3.76-3.76V30l-3.76-3.76H54.17z M97.55,110.47l-2.8,2.8h-39.9
		l-2.8-2.8v-79.8l2.8-2.8h39.9l2.8,2.8V110.47z"/>
	<path class="st0" d="M54.98,110.29h39.63V30.85H54.98V110.29z M56.04,31.91h37.52v77.33H56.04V31.91z"/>
	<polygon class="st0" points="85.75,97.14 81.02,97.14 81.02,101.87 85.62,101.87 85.62,106.47 90.35,106.47 90.35,101.74 
		85.75,101.74 	"/>
</g>
</svg>
