<?xml version="1.0" encoding="utf-8"?>
<!-- Generator: Adobe Illustrator 27.0.1, SVG Export Plug-In . SVG Version: 6.00 Build 0)  -->
<svg version="1.1" id="Layer_1" xmlns="http://www.w3.org/2000/svg" xmlns:xlink="http://www.w3.org/1999/xlink" x="0px" y="0px"
	 viewBox="0 0 141.73 141.73" style="enable-background:new 0 0 141.73 141.73;" xml:space="preserve">
<style type="text/css">
	.st0{fill:#00CFFF;}
</style>
<g>
	<path class="st0" d="M112.56,49.36v-1.08h4.61V45.5h-4.61v-1.08h-9.54L97.8,39.2v-9.54h-1.08v-4.61h-2.78v4.61h-1.08v5.66h-3.18
		v-5.66H88.6v-4.61h-2.78v4.61h-1.08v5.66h-3.18v-5.66h-1.08v-4.61H77.7v4.61h-1.08v5.66h-3.18v-5.66h-1.08v-4.61h-2.78v4.61H68.5
		v5.66h-3.18v-5.66h-1.08v-4.61h-2.78v4.61h-1.08v5.66H57.2v-5.66h-1.08v-4.61h-2.78v4.61h-1.08v5.66h-3.18v-5.66H48v-4.61h-2.78
		v4.61h-1.08v9.54l-5.23,5.23h-9.54v1.08h-4.61v2.78h4.61v1.08h5.69v3.18h-5.69v1.08h-4.61v2.78h4.61v1.08h5.69v3.18h-5.69v1.08
		h-4.61v2.78h4.61v1.08h5.69v3.18h-5.69v1.08h-4.61v2.78h4.61v1.08h5.69v3.18h-5.69v1.08h-4.61v2.78h4.61v1.08h5.69v3.18h-5.69v1.08
		h-4.61v2.78h4.61v1.08h5.69v3.18h-5.69v1.08h-4.61v2.78h4.61v1.08h9.59l5.18,5.18v9.59h1.08v4.61H48v-4.61h1.08v-5.72h3.18v5.72
		h1.08v4.61h2.78v-4.61h1.08v-5.72h3.18v5.72h1.08v4.61h2.78v-4.61h1.08v-5.72h3.18v5.72h1.08v4.61h2.78v-4.61h1.08v-5.72h3.18v5.72
		h1.08v4.61h2.78v-4.61h1.08v-5.72h3.18v5.72h1.08v4.61h2.78v-4.61h1.08v-5.72h3.18v5.72h1.08v4.61h2.78v-4.61h1.08v-9.59l5.18-5.18
		h9.59v-1.08h4.61v-2.78h-4.61v-1.08h-5.69v-3.18h5.69v-1.08h4.61v-2.78h-4.61v-1.08h-5.69v-3.18h5.69v-1.08h4.61v-2.78h-4.61v-1.08
		h-5.69v-3.18h5.69v-1.08h4.61v-2.78h-4.61v-1.08h-5.69V65.6h5.69v-1.08h4.61v-2.78h-4.61v-1.08h-5.69v-3.18h5.69V56.4h4.61v-2.78
		h-4.61v-1.08h-5.69v-3.18H112.56z M105.24,93.51L93.25,105.5H48.68L36.69,93.51V48.95l11.99-11.99h44.57l11.99,11.99V93.51z"/>
	<path class="st0" d="M50.01,41.61l-8.67,8.67v41.91l8.67,8.67h41.91l8.67-8.67V50.28l-8.67-8.67H50.01z M99.5,91.73l-8.03,8.03
		H50.46l-8.03-8.03v-41l8.03-8.03h41.01l8.03,8.03V91.73z"/>
	<path class="st0" d="M50.66,88.53c-1.49,0-2.7,1.21-2.7,2.7s1.21,2.7,2.7,2.7s2.7-1.21,2.7-2.7S52.15,88.53,50.66,88.53z"/>
</g>
</svg>
