<?xml version="1.0" encoding="utf-8"?>
<!-- Generator: Adobe Illustrator 27.0.1, SVG Export Plug-In . SVG Version: 6.00 Build 0)  -->
<svg version="1.1" id="Layer_1" xmlns="http://www.w3.org/2000/svg" xmlns:xlink="http://www.w3.org/1999/xlink" x="0px" y="0px"
	 viewBox="0 0 141.73 141.73" style="enable-background:new 0 0 141.73 141.73;" xml:space="preserve">
<style type="text/css">
	.st0{fill:#00CFFF;}
</style>
<g>
	<path class="st0" d="M58.77,43.46c0.09-2.22-0.59-4.05-2.02-5.44c-3.4-3.3-9.85-2.87-10.12-2.85l0.11,1.51
		c0.05,0,6.05-0.4,8.96,2.43c1.12,1.09,1.64,2.49,1.56,4.29c-0.31,7.61-7.01,8.78-7.29,8.83l0.24,1.49
		C50.28,53.71,58.4,52.33,58.77,43.46z"/>
	<path class="st0" d="M57.32,87.45c0.1-1.82,0.74-3.25,1.9-4.26c2.33-2.03,6.03-1.76,6.07-1.76l0.12-1.51
		c-0.18-0.01-4.36-0.33-7.17,2.12c-1.48,1.29-2.29,3.08-2.42,5.32c-0.46,8.04,7.67,8.97,7.75,8.98l0.15-1.5
		C63.44,94.81,56.94,94.04,57.32,87.45z"/>
	<path class="st0" d="M56.49,110.3c-0.7,0.12-1.43-0.24-2.19-1.07l-1.12,1.02c0.96,1.05,1.98,1.58,3.03,1.58
		c0.17,0,0.33-0.01,0.5-0.04c2.57-0.4,4.2-3.89,4.27-4.04l-1.37-0.63C59.26,107.93,57.97,110.06,56.49,110.3z"/>
	<path class="st0" d="M52.46,95.09c-0.63,0.44-1.53,0.48-2.66,0.12l-0.45,1.44c0.66,0.21,1.27,0.31,1.84,0.31
		c0.81,0,1.53-0.21,2.14-0.64c1.71-1.19,1.86-3.58,1.86-3.68l-1.51-0.08C53.67,92.58,53.56,94.33,52.46,95.09z"/>
	<path class="st0" d="M112.04,75.76c0.62-1.89,2.35-8.27-1.11-12.44c0.51-2.74,2.13-14.5-6.81-18.49c-0.28-0.13-0.52-0.3-0.71-0.53
		c-0.65-0.78-1.76-2.52-1.89-5.39c-0.14-3.14-5.59-8.86-11.9-12.49c-6.15-3.55-11.78-4.33-15.79-2.25c-2.07,0.95-3.17,3.04-3.75,5.1
		c-0.57-2.12-1.65-4.23-3.73-5.07c-4.06-2.11-9.69-1.32-15.84,2.22c-6.31,3.63-11.76,9.36-11.9,12.49c-0.17,3.7-1.92,5.48-2.27,5.8
		c-4.29,1.77-6.87,5.64-7.45,11.24c-0.34,3.26,0.09,6.18,0.31,7.37c-3.47,4.17-1.74,10.55-1.11,12.44
		c-4.1,6.62,0.67,13.43,2.22,15.36c-0.15,0.39-0.31,0.81-0.43,1.15c-2.95,8.78,5.98,14.64,8.1,15.88c1.66,5.99,9.05,6.71,10.68,6.79
		c1.56,1.12,3.4,1.82,5.48,2.03c0.55,0.06,1.08,0.09,1.6,0.09c5.32,0,9.36-2.85,11.89-5.37c1.09-1.09,1.91-2.43,2.43-3.88
		c0.51,1.45,1.33,2.79,2.43,3.88c2.53,2.52,6.57,5.37,11.89,5.37c0.52,0,1.06-0.03,1.6-0.09c2.1-0.22,3.96-0.91,5.52-2.04
		c1.87-0.28,7.92-1.63,9.45-7.28c2.08-1.22,10.66-6.85,8.28-15.3C110.81,90.37,116.26,82.63,112.04,75.76z M66.12,110.16
		c-2.45,2.44-6.48,5.22-11.74,4.67c-1.82-0.19-3.4-0.8-4.71-1.81l-0.2,0.26c-0.16-0.12-0.29-0.27-0.44-0.4v-0.08c0,0-0.04,0-0.1,0
		c-2.43-2.22-3.17-5.38-2.77-7.52c0.15-0.79,0.59-2.18,1.9-2.57c1.65-0.49,3.48-0.27,5.25-0.06c2.71,0.32,5.52,0.66,6.65-2.14
		l-1.4-0.57c-0.67,1.65-2.28,1.55-5.08,1.21c-1.83-0.22-3.92-0.47-5.86,0.11c-1.52,0.45-2.59,1.81-2.95,3.74
		c-0.39,2.11,0.12,5.05,1.94,7.48c-2.42-0.5-5.89-1.82-6.63-5.27l-0.11-0.5l-0.45-0.23c-0.03-0.01-2.67-1.4-4.9-3.81
		c-2.85-3.08-3.72-6.35-2.59-9.72c0.16-0.49,0.44-1.18,0.62-1.62l-0.29-0.12c3.06-7,8.4-7.8,8.63-7.83l-0.19-1.5
		c-0.25,0.03-5.66,0.79-9.15,7.33c-1.63-2.16-4.89-7.56-1.37-12.7l0.32-0.47l-0.2-0.53c-0.03-0.07-2.3-6.12,0.06-10.06
		c0.67,1.21,1.88,2.75,3.82,3.28c2.53,0.69,5.5-0.52,8.83-3.61c3-2.78,5.38-3.89,6.86-3.2c1.71,0.79,2.16,3.94,2.1,5.25
		c-0.12,2.71-0.89,9.15-5.48,10.29l0.37,1.47c5.58-1.39,6.49-8.64,6.62-11.69c0.06-1.45-0.35-5.48-2.97-6.69
		c-2.12-0.98-4.98,0.18-8.52,3.46c-2.92,2.7-5.41,3.8-7.4,3.26c-1.75-0.48-2.75-2.16-3.2-3.14l0.17-0.18l-0.13-0.57
		c-0.03-0.13-2.95-13.32,5.93-16.78l-0.12-0.3c0.08-0.03,0.16-0.04,0.24-0.07l0.16,0.2c0.02-0.02,0.17-0.14,0.38-0.36
		c7.5-2.14,13.44,1.41,13.5,1.44l0.79-1.29c-0.25-0.16-5.67-3.41-12.94-2.04c0.67-1.21,1.29-2.92,1.4-5.2
		c0.08-1.71,3.89-6.37,9.58-9.97c2.33,0.02,5.14,1.24,7.37,3.28c1.51,1.38,4.02,4.32,3.88,8.53c-0.28,8.22,6,9.53,6.06,9.55
		l0.29-1.48c-0.21-0.04-5.08-1.12-4.85-8.01c0.12-3.57-1.43-7.01-4.37-9.7c-1.87-1.71-4.12-2.9-6.27-3.41
		c3.32-1.77,8.71-3.86,12.97-1.65c2.77,1.12,3.16,6.49,3.08,8.5V74.6c-2.89-0.74-9.71-1.85-12.78,3.18
		c-0.94,1.55-1.65,3.14-2.34,4.68c-1.98,4.43-3.55,7.93-9.25,8.34c-8.78,0.63-9.72,7.26-9.73,7.33l1.5,0.19
		c0.03-0.22,0.83-5.47,8.34-6.01c6.6-0.48,8.51-4.73,10.52-9.23c0.67-1.5,1.36-3.04,2.25-4.51c2.64-4.34,9.18-3.03,11.49-2.4v28.13
		C68.52,106.52,67.65,108.64,66.12,110.16z M104.79,101.82h-17l-4.46,4.46h-7.25v1.08h7.7l4.46-4.46h15.52
		c-1.98,1.9-4.04,2.99-4.23,3.09l-0.45,0.23l-0.04,0.19h-9.07v1.08h8.78c-1.61,4.73-7.69,5.34-7.96,5.37l0.06,0.65l-0.38-0.49
		c-1.3,1.01-2.89,1.61-4.71,1.81c-5.26,0.55-9.29-2.23-11.74-4.67c-1.53-1.52-2.4-3.65-2.4-5.83v-2.66h7.4l1.58,1.58h1.97v-1.08
		h-1.52l-1.58-1.58h-7.84v-3.01h24.55l2.6-2.59h4.6v-1.08h-5.04l-2.6,2.59h-24.1v-4.33H90v-1.08H71.61V78.75h21.75l3.9,3.9h3.7
		v-1.08h-3.25l-3.9-3.9h-22.2V60.08h6.52l2.9,2.9h8.23L94,58.23h8.38v-1.08h-8.83l-4.74,4.74h-7.34l-2.9-2.9h-6.96v-4.43h22.65
		v-1.08H71.61V40.65h16.46l1.85,1.85h4.06v-1.08h-3.61l-1.85-1.85H71.61v-1.7h7.42l2.56-2.56H92.9v-1.08H81.14l-2.56,2.56h-6.97
		V34.6c-0.09-1.92,0.29-7.17,3.17-8.49c1.27-0.66,2.66-0.93,4.06-0.93c3.64,0,7.41,1.78,9.7,3.1c6.38,3.68,10.74,8.89,10.82,10.72
		c0.16,3.5,1.57,5.68,2.39,6.68c0.4,0.48,0.9,0.86,1.49,1.12c1.73,0.77,2.98,1.94,3.87,3.31H84.74l-3.44-3.44h-5.39v1.08h4.95
		l3.44,3.44h23.43c2.53,5.14,1.01,12.11,0.99,12.2l-0.13,0.57l0.4,0.42c1.35,1.41,1.82,3.3,1.87,5.13H84.89l-3.61,3.61h-6.05v1.08
		h6.5l3.61-3.61h25.5c-0.14,2.64-0.98,4.89-1,4.93l-0.2,0.53l0.32,0.47c2.12,3.1,1.61,6.62,0.49,9.45H94.48l-3.62-3.62H83.4
		l-2.26,2.26h-5.23v1.08h5.68l2.26-2.26h6.58l3.62,3.62h15.94c-1.2,2.54-2.72,4.33-2.76,4.37l-0.41,0.47l0.2,0.59
		C108.31,96.32,106.79,99.51,104.79,101.82z"/>
	<path class="st0" d="M57.9,56.34c-0.02,0.13-0.54,3.13,1.28,5.58c1.21,1.63,3.14,2.61,5.74,2.9l0.17-1.5
		c-2.16-0.24-3.73-1.01-4.69-2.29c-1.43-1.91-1.02-4.39-1.01-4.41L57.9,56.34z"/>
	<path class="st0" d="M46.62,69.42l-1.43-0.5c-0.09,0.25-2.24,6.1-8.98,5.08l-0.23,1.49c0.62,0.09,1.21,0.14,1.77,0.14
		C44.39,75.64,46.6,69.49,46.62,69.42z"/>
	<path class="st0" d="M36.21,54.24l-0.61,0.44l-0.61,0.44c0.02,0.03,1.59,2.16,4.65,2.16c1.17,0,2.56-0.31,4.16-1.16l-0.71-1.33
		C38.49,57.23,36.3,54.36,36.21,54.24z"/>
	<path class="st0" d="M63.8,87.4l-0.44,1.45c0.12,0.04,2.99,0.97,2.99,3.76h1.51C67.86,89.47,65.2,87.83,63.8,87.4z"/>
</g>
</svg>
