<?xml version="1.0" encoding="utf-8"?>
<!-- Generator: Adobe Illustrator 27.0.1, SVG Export Plug-In . SVG Version: 6.00 Build 0)  -->
<svg version="1.1" id="Layer_1" xmlns="http://www.w3.org/2000/svg" xmlns:xlink="http://www.w3.org/1999/xlink" x="0px" y="0px"
	 viewBox="0 0 141.73 141.73" style="enable-background:new 0 0 141.73 141.73;" xml:space="preserve">
<style type="text/css">
	.st0{fill:#00CFFF;}
</style>
<g>
	<path class="st0" d="M91.05,26.68H50.62c-3.73,0-6.76,3.03-6.76,6.76v74.72c0,3.73,3.03,6.76,6.76,6.76h40.43
		c3.73,0,6.76-3.03,6.76-6.76V33.44C97.81,29.71,94.78,26.68,91.05,26.68z M94.79,108.16c0,2.06-1.68,3.74-3.74,3.74H50.62
		c-2.06,0-3.74-1.68-3.74-3.74V33.44c0-2.06,1.68-3.74,3.74-3.74h40.43c2.06,0,3.74,1.68,3.74,3.74V108.16z"/>
	<path class="st0" d="M85.88,34.07h-30.1c-2.55,0-4.63,2.08-4.63,4.63v54.81c0,2.55,2.08,4.63,4.63,4.63h30.1
		c2.55,0,4.63-2.08,4.63-4.63V38.7C90.51,36.15,88.44,34.07,85.88,34.07z M88.5,93.51c0,1.44-1.17,2.61-2.61,2.61h-30.1
		c-1.44,0-2.61-1.17-2.61-2.61V38.7c0-1.44,1.17-2.61,2.61-2.61h30.1c1.44,0,2.61,1.17,2.61,2.61V93.51z"/>
	<path class="st0" d="M70.84,102.02c-1.43,0-2.59,1.16-2.59,2.59c0,1.43,1.16,2.59,2.59,2.59s2.58-1.16,2.58-2.59
		S72.26,102.02,70.84,102.02z"/>
</g>
</svg>
