<?xml version="1.0" encoding="utf-8"?>
<!-- Generator: Adobe Illustrator 27.0.1, SVG Export Plug-In . SVG Version: 6.00 Build 0)  -->
<svg version="1.1" id="Layer_1" xmlns="http://www.w3.org/2000/svg" xmlns:xlink="http://www.w3.org/1999/xlink" x="0px" y="0px"
	 viewBox="0 0 141.73 141.73" style="enable-background:new 0 0 141.73 141.73;" xml:space="preserve">
<style type="text/css">
	.st0{fill:#00CFFF;}
</style>
<path class="st0" d="M105.89,41.51c-2.32,0-6.33,0.95-8.35,1.47l-1.6-3.56L85.08,54.68l18.34,3.01l-1.26-3.24
	c1.29-0.31,2.89-0.64,3.73-0.64c9.26,0,16.79,7.53,16.79,16.79s-7.53,16.79-16.79,16.79c-5.63,0-17.02-8.26-26.25-16.78
	c3.24-3.09,7.11-6.76,9.23-8.64l1.11-0.98l-8.18-9.2l-1.1,0.98c-1.75,1.56-4.7,4.31-8.77,8.2c-8.69-8.1-23.88-20.55-35.14-20.55
	c-16.05,0-29.11,13.06-29.11,29.11s13.06,29.11,29.11,29.11c2.32,0,6.33-0.95,8.36-1.47l1.6,3.56l10.86-15.26l-18.34-3.01l1.27,3.24
	c-1.29,0.31-2.89,0.64-3.73,0.64c-9.26,0-16.79-7.53-16.79-16.79s7.53-16.79,16.79-16.79c5.62,0,17.02,8.26,26.25,16.78
	c-3.24,3.1-7.12,6.77-9.23,8.64l-1.11,0.98l8.18,9.2l1.1-0.98c2.13-1.9,5.77-5.33,8.77-8.2c8.69,8.1,23.88,20.55,35.14,20.55
	c16.05,0,29.11-13.06,29.11-29.11S121.94,41.51,105.89,41.51z M105.89,96.77c-11.1,0-27.57-14.48-34.13-20.7l-1.02-0.97l-1.02,0.97
	c-2.69,2.57-6.19,5.89-8.61,8.1l-4.26-4.78c2.53-2.31,6.37-5.96,9.34-8.81l1.12-1.08l-1.13-1.07c-3.3-3.11-20.24-18.64-29.42-18.64
	c-10.89,0-19.75,8.86-19.75,19.75s8.86,19.75,19.75,19.75c1.91,0,5.69-1.03,6.11-1.15l1.58-0.44l-0.58-1.48l8.54,1.4l-5.11,7.19
	l-0.52-1.16L45.56,94c-1.68,0.47-6.53,1.69-8.79,1.69c-14.42,0-26.15-11.73-26.15-26.15s11.73-26.15,26.15-26.15
	c11.1,0,27.57,14.48,34.13,20.7l1.02,0.97l1.02-0.97c3.72-3.56,6.66-6.33,8.61-8.1l4.26,4.78c-2.54,2.32-6.38,5.97-9.34,8.81
	l-1.12,1.08l1.13,1.07c3.3,3.11,20.23,18.64,29.42,18.64c10.89,0,19.75-8.86,19.75-19.75s-8.86-19.75-19.75-19.75
	c-1.91,0-5.69,1.03-6.11,1.15l-1.58,0.44l0.58,1.48l-8.54-1.4l5.12-7.19l0.52,1.16l1.23-0.34c1.68-0.47,6.53-1.69,8.79-1.69
	c14.42,0,26.15,11.73,26.15,26.15S120.31,96.77,105.89,96.77z"/>
</svg>
