<?xml version="1.0" encoding="utf-8"?>
<!-- Generator: Adobe Illustrator 27.0.1, SVG Export Plug-In . SVG Version: 6.00 Build 0)  -->
<svg version="1.1" id="Layer_1" xmlns="http://www.w3.org/2000/svg" xmlns:xlink="http://www.w3.org/1999/xlink" x="0px" y="0px"
	 viewBox="0 0 141.73 141.73" style="enable-background:new 0 0 141.73 141.73;" xml:space="preserve">
<style type="text/css">
	.st0{fill:#00CFFF;}
</style>
<g>
	<path class="st0" d="M70.21,40.09c21,0,42.25-3.98,42.25-11.58S91.21,16.93,70.21,16.93s-42.25,3.98-42.25,11.58
		C27.96,36.12,49.21,40.09,70.21,40.09z M70.21,20.04c23.9,0,39.15,5.02,39.15,8.47c0,3.46-15.25,8.48-39.15,8.48
		s-39.15-5.02-39.15-8.48C31.06,25.06,46.31,20.04,70.21,20.04z"/>
	<path class="st0" d="M110.91,35.37c-0.86,0-1.55,0.7-1.55,1.55c0,3.46-15.25,8.48-39.15,8.48s-39.15-5.02-39.15-8.48
		c0-0.86-0.7-1.55-1.55-1.55s-1.55,0.7-1.55,1.55v15.65c0,7.6,21.25,11.58,42.25,11.58s42.25-3.98,42.25-11.58V36.92
		C112.46,36.07,111.76,35.37,110.91,35.37z M109.35,52.57c0,3.46-15.25,8.47-39.15,8.47s-39.15-5.02-39.15-8.47V41.58
		c6.65,4.56,22.97,6.92,39.15,6.92s32.5-2.36,39.15-6.92V52.57z"/>
	<path class="st0" d="M110.91,58.76c-0.86,0-1.55,0.7-1.55,1.55c0,3.46-15.25,8.48-39.15,8.48s-39.15-5.02-39.15-8.48
		c0-0.86-0.7-1.55-1.55-1.55s-1.55,0.7-1.55,1.55v15.65c0,7.6,21.25,11.58,42.25,11.58s42.25-3.98,42.25-11.58V60.31
		C112.46,59.45,111.76,58.76,110.91,58.76z M109.35,75.96c0,3.46-15.25,8.47-39.15,8.47s-39.15-5.02-39.15-8.47V64.97
		c6.65,4.56,22.97,6.92,39.15,6.92s32.5-2.36,39.15-6.92V75.96z"/>
	<path class="st0" d="M110.91,82.14c-0.86,0-1.55,0.7-1.55,1.55c0,3.46-15.25,8.47-39.15,8.47s-39.15-5.02-39.15-8.47
		c0-0.86-0.7-1.55-1.55-1.55s-1.55,0.7-1.55,1.55v15.65c0,7.6,21.25,11.58,42.25,11.58s42.25-3.98,42.25-11.58V83.69
		C112.46,82.84,111.76,82.14,110.91,82.14z M109.35,99.34c0,3.46-15.25,8.47-39.15,8.47s-39.15-5.02-39.15-8.47V88.35
		c6.65,4.56,22.97,6.92,39.15,6.92s32.5-2.36,39.15-6.92V99.34z"/>
</g>
</svg>
