<?xml version="1.0" encoding="utf-8"?>
<!-- Generator: Adobe Illustrator 27.0.1, SVG Export Plug-In . SVG Version: 6.00 Build 0)  -->
<svg version="1.1" id="Layer_1" xmlns="http://www.w3.org/2000/svg" xmlns:xlink="http://www.w3.org/1999/xlink" x="0px" y="0px"
	 viewBox="0 0 141.73 141.73" style="enable-background:new 0 0 141.73 141.73;" xml:space="preserve">
<style type="text/css">
	.st0{fill:#00CFFF;}
</style>
<g>
	<path class="st0" d="M-1117.9,92.84V32c0-3.66-2.98-6.64-6.64-6.64h-98.96c-3.66,0-6.64,2.98-6.64,6.64v60.84h-10v1.01
		c0,2.62,2.12,4.74,4.74,4.74h122.03c2.62,0,4.74-2.12,4.74-4.74v-1.01H-1117.9z M-1226.69,32c0-1.76,1.43-3.19,3.19-3.19h98.96
		c1.76,0,3.19,1.43,3.19,3.19v58.59h-105.34L-1226.69,32L-1226.69,32z"/>
	<rect x="-1216.84" y="38.61" class="st0" width="66.83" height="3.46"/>
	<rect x="-1213.39" y="46.16" class="st0" width="28.74" height="3.46"/>
	<rect x="-1170.2" y="62.4" class="st0" width="28.74" height="3.46"/>
	<rect x="-1214.7" y="62.4" class="st0" width="39.08" height="3.46"/>
	<rect x="-1214.7" y="68.48" class="st0" width="39.08" height="3.46"/>
	<rect x="-1214.7" y="76.53" class="st0" width="11.33" height="3.46"/>
	<rect x="-1178.41" y="76.53" class="st0" width="21.02" height="3.46"/>
	<rect x="-1214.87" y="53.22" class="st0" width="39.9" height="3.46"/>
	<rect x="-1176.61" y="46.16" class="st0" width="39.9" height="3.46"/>
</g>
<g>
	<path class="st0" d="M107.17,109.6v-5.94h6.99V83.11h-6.99v-6.43h6.99V56.12h-6.99v-6.43h6.99V29.14H28.28v20.55h6.99v6.43h-6.99
		v20.55h6.99v6.43h-6.99v20.55h6.99v5.94h-11.3v2.99h93.93v-2.99h-10.73V109.6z M30.27,31.13h81.9V47.7h-81.9
		C30.27,47.7,30.27,31.13,30.27,31.13z M30.27,58.12h81.9v16.57h-81.9C30.27,74.69,30.27,58.12,30.27,58.12z M30.27,85.1h81.9v16.57
		h-81.9C30.27,101.67,30.27,85.1,30.27,85.1z"/>
	<path class="st0" d="M40.54,61.76c-2.87,0-5.21,2.34-5.21,5.21s2.34,5.21,5.21,5.21s5.21-2.34,5.21-5.21
		C45.75,64.09,43.41,61.76,40.54,61.76z M40.54,70.19c-1.77,0-3.22-1.44-3.22-3.22c0-1.77,1.44-3.22,3.22-3.22
		c1.77,0,3.22,1.44,3.22,3.22C43.76,68.74,42.31,70.19,40.54,70.19z"/>
	<path class="st0" d="M40.54,89.12c-2.87,0-5.21,2.34-5.21,5.21s2.34,5.21,5.21,5.21s5.21-2.34,5.21-5.21S43.41,89.12,40.54,89.12z
		 M40.54,97.55c-1.77,0-3.22-1.44-3.22-3.22c0-1.77,1.44-3.22,3.22-3.22c1.77,0,3.22,1.44,3.22,3.22
		C43.76,96.11,42.31,97.55,40.54,97.55z"/>
	<path class="st0" d="M56.93,61.76c-2.87,0-5.21,2.34-5.21,5.21s2.34,5.21,5.21,5.21s5.21-2.34,5.21-5.21
		C62.14,64.09,59.8,61.76,56.93,61.76z M56.93,70.19c-1.77,0-3.22-1.44-3.22-3.22c0-1.77,1.44-3.22,3.22-3.22
		c1.77,0,3.22,1.44,3.22,3.22C60.15,68.74,58.7,70.19,56.93,70.19z"/>
	<path class="st0" d="M73.32,61.76c-2.87,0-5.21,2.34-5.21,5.21s2.34,5.21,5.21,5.21s5.21-2.34,5.21-5.21
		C78.53,64.09,76.19,61.76,73.32,61.76z M73.32,70.19c-1.77,0-3.22-1.44-3.22-3.22c0-1.77,1.44-3.22,3.22-3.22
		c1.77,0,3.22,1.44,3.22,3.22C76.54,68.74,75.09,70.19,73.32,70.19z"/>
	<rect x="34.77" y="34.49" class="st0" width="1" height="10.04"/>
	<rect x="38.76" y="34.49" class="st0" width="1" height="10.04"/>
	<rect x="42.76" y="34.49" class="st0" width="1" height="10.04"/>
	<rect x="46.76" y="34.49" class="st0" width="1" height="10.04"/>
	<rect x="50.76" y="34.49" class="st0" width="1" height="10.04"/>
	<rect x="57.68" y="34.49" class="st0" width="49.05" height="4.17"/>
</g>
</svg>
