<?xml version="1.0" encoding="utf-8"?>
<!-- Generator: Adobe Illustrator 27.0.1, SVG Export Plug-In . SVG Version: 6.00 Build 0)  -->
<svg version="1.1" id="Layer_1" xmlns="http://www.w3.org/2000/svg" xmlns:xlink="http://www.w3.org/1999/xlink" x="0px" y="0px"
	 viewBox="0 0 141.73 141.73" style="enable-background:new 0 0 141.73 141.73;" xml:space="preserve">
<style type="text/css">
	.st0{fill:#00CFFF;}
</style>
<g>
	<path class="st0" d="M127.11,104.26V41.4c0-3.65-2.97-6.61-6.61-6.61H21.97c-3.65,0-6.61,2.97-6.61,6.61v62.86H4.87v1
		c0,2.61,2.11,4.72,4.72,4.72h122.56c2.61,0,4.72-2.11,4.72-4.72v-1H127.11z M18.8,41.4c0-1.75,1.42-3.17,3.17-3.17h98.52
		c1.75,0,3.17,1.42,3.17,3.17v60.62H18.8V41.4z"/>
	<rect x="28.61" y="47.97" class="st0" width="66.53" height="3.44"/>
	<rect x="32.04" y="55.49" class="st0" width="28.61" height="3.44"/>
	<rect x="75.03" y="73.95" class="st0" width="28.61" height="3.44"/>
	<rect x="30.73" y="73.95" class="st0" width="38.91" height="3.44"/>
	<rect x="30.73" y="80" class="st0" width="38.91" height="3.44"/>
	<rect x="30.73" y="88.01" class="st0" width="11.28" height="3.44"/>
	<rect x="66.86" y="88.01" class="st0" width="20.92" height="3.44"/>
	<rect x="30.57" y="62.52" class="st0" width="39.72" height="3.44"/>
	<rect x="68.66" y="55.49" class="st0" width="39.72" height="3.44"/>
</g>
</svg>
