<?xml version="1.0" encoding="utf-8"?>
<!-- Generator: Adobe Illustrator 26.0.3, SVG Export Plug-In . SVG Version: 6.00 Build 0)  -->
<svg version="1.1" id="Layer_1" xmlns="http://www.w3.org/2000/svg" xmlns:xlink="http://www.w3.org/1999/xlink" x="0px" y="0px"
	 viewBox="0 0 571 571" style="enable-background:new 0 0 571 571;" xml:space="preserve">
<style type="text/css">
	.st0{fill:#00CFFF;}
</style>
<g>
	<path class="st0" d="M476.6,241.1c0.7-6.9-1.5-13.5-5.9-18.4c-4.4-4.9-10.7-7.6-17.7-7.6h-55.8c-12.9,0-24.6,8.4-27.7,19.9l0.3,0.1
		c-0.9,3.3-1.9,10.8-4.4,29L344.5,418c-0.4,6.8,1.8,13.2,6.2,17.9c4.4,4.7,10.5,7.3,17.3,7.3h80.3c14.2,0,27.2-11.5,29.2-25.6
		c0.1-0.8,0.1-1.5,0.1-2.3L476.6,241.1z M466.9,416.1c-1.2,8.9-9.7,16.4-18.6,16.4H368c-3.8,0-7.2-1.4-9.6-3.9
		c-2.4-2.6-3.6-6.1-3.4-9.6c8.3-60.5,23.9-174.9,24.9-181.3c2.3-7.8,10.4-11.9,17.4-11.9h55.8c3.9,0,7.4,1.5,9.8,4.1
		c2.4,2.7,3.6,6.3,3.2,10.8l0.9,174.6C467,415.5,467,415.8,466.9,416.1z"/>
	<path class="st0" d="M358.6,223.2c-13.1-13.9-47-69.1-51-91.6c-2.4-13.4-0.2-22.9,1.8-31.4c1.5-6.2,2-12.4,1.5-19.6
		c-0.6-10.2-8-23-21.1-28c-10.8-4-28.4-4-51.4,19.1c-14.1,14.2-27.9,44.8-26.5,71.3c0.8,14.6,0.8,30.4,0.7,40.8H137
		c-19.3,0-31.5,8.7-38.3,16.1c-13.3,14.3-16.5,34-15.3,46.5c0.7,7.7,3.7,14.3,8.6,19.5c-8.2,8.1-12.8,18-13.8,29.3v0
		c-1.4,16.5,4.7,30.1,16.8,38c-3.7,7.1-6.6,17.3-4.2,30.7c2.2,12.7,9.9,22.1,21.9,26.8c-3,8.8-3.1,17.6,0,26.2
		c8.1,22.6,34.1,24.4,41.8,24.4h101.2c18.4,0,49.9-10.5,73-19.2c4.5-1.7,7.7-5.7,8.3-10.5l24.3-179.9
		C361.8,228.7,360.8,225.5,358.6,223.2z M326.5,410.4c-0.1,0.9-0.7,1.7-1.6,2c-18.3,6.9-51.5,18.5-69.2,18.5H154.5
		c-6,0-26.1-1.2-31.8-17.3c-2.5-7-2.1-14.3,1-21.7l0.4-0.9v0c9.9,0.4,20-1.2,29.7-2.4c-14.5-2-29.6-3.6-42.7-10.4
		c-5.3-3.7-8.7-9-9.9-15.9c-2.1-12.1,1-20.7,4.5-26.1c12,1.9,24.5-0.5,36.4-1.7c-8-1-15.9-2.1-23.6-3.8c-7.8-1.6-14-3.9-20.3-8.2
		c-7.1-5.9-10.3-14.8-9.4-26.2c0.8-10,5.5-18.6,13.7-25.4c0.5,0.1,1,0.3,1.5,0.5c12.2,2.1,24.9-0.4,37-1.7c-8-1-15.9-2.1-23.6-3.8
		c-3.1-0.6-5.9-1.4-8.6-2.3c-7.7-2.7-13.7-9.3-14.7-17.5c0-0.2,0-0.4-0.1-0.6c-1-10.3,1.7-26.6,12.5-38.3c5.4-5.8,15-12.7,30.5-12.7
		h86.1l0.1-5.2c0.1-9.9,0.2-29.1-0.7-46.7c-1.2-23.3,11.2-51,23.4-63.3c14.8-14.9,29-20.9,40.1-16.7c8.4,3.2,13.9,12,14.3,18.7
		c0.4,6.2,0,11.3-1.3,16.7c-2,8.4-4.7,19.9-1.9,35.5c4.5,25.5,39.7,82.1,53.7,96.9L326.5,410.4z"/>
</g>
</svg>
