<?xml version="1.0" encoding="utf-8"?>
<!-- Generator: Adobe Illustrator 26.0.3, SVG Export Plug-In . SVG Version: 6.00 Build 0)  -->
<svg version="1.1" id="Layer_1" xmlns="http://www.w3.org/2000/svg" xmlns:xlink="http://www.w3.org/1999/xlink" x="0px" y="0px"
	 viewBox="0 0 571 571" style="enable-background:new 0 0 571 571;" xml:space="preserve">
<style type="text/css">
	.st0{fill:#00CFFF;}
</style>
<g>
	<path class="st0" d="M400.6,280.4c-2.8-1-5.8,0.5-6.8,3.2c-7.8,21.9-21.3,41.4-39.2,56.4c-10.5,8.8-17,21.6-17.7,35l-2.4,69.5
		c-0.3,9.6-8.2,17.6-17.9,18.1l-3.6,0.2l-1.2,3.4c-3.7,10.4-21.2,18.3-40.7,18.3c-19.7,0-37.3-7.9-40.8-18.5l-1-3l-3.2-0.5
		c-8.8-1.4-15.6-9.1-16-17.9l-0.4-10.5c11.8,5.7,35.4,14.4,67.4,14.4c3.4,0,6.8-0.1,10.4-0.3c2.9-0.2,5.2-2.7,5-5.6
		c-0.2-2.9-2.7-5.1-5.6-5c-41.1,2.4-69.6-11.3-77.6-15.7l-0.9-22.7c12.2,5.3,37.1,13.9,70.4,13.9c1.7,0,3.5,0,5.2-0.1
		c2.9-0.1,5.2-2.5,5.2-5.4c-0.1-2.9-2.5-5.2-5.4-5.2c-39.2,1.1-67.5-11.1-75.9-15.2l-0.4-11.1c-0.3-4.8-1.3-9.5-3-14
		c15.2,5.9,39.8,13.4,66.3,13.4c5.7,0,11.4-0.3,17.2-1.1c2.9-0.4,4.9-3.1,4.5-6c-0.4-2.9-3.1-4.9-6-4.5c-42.1,5.7-85-14.3-91.8-17.6
		c-1.8-2-3.7-3.8-5.8-5.5c-34.2-27.9-51.8-70.9-47.1-114.8c6.4-60,54.5-108.4,114.4-115.1c2.9-0.3,5-2.9,4.7-5.9
		c-0.3-2.9-2.9-5-5.9-4.7c-64.9,7.2-116.9,59.6-123.8,124.5c-5,47.5,14,94,50.9,124.2c1.8,1.5,3.4,3.1,4.9,4.8
		c0.1,0.1,0.2,0.2,0.3,0.3c5.5,6.4,8.9,14.3,9.4,22.5l2.8,68.3c0.5,12.9,9.6,23.9,21.9,27.3c6.6,13.6,26.4,22.8,49.7,22.8
		c22.8,0,42.4-9,49.4-22.2c13.6-2.3,24.1-14,24.6-27.9l2.4-69.5c0.5-10.5,5.6-20.4,13.9-27.4c19.4-16.2,34-37.3,42.4-61
		C404.8,284.4,403.4,281.4,400.6,280.4z"/>
	<path class="st0" d="M278.6,110.3h75.9c1.8,2.7,4.8,4.6,8.3,4.6c5.4,0,9.9-4.4,9.9-9.9c0-5.4-4.4-9.9-9.9-9.9
		c-3.5,0-6.6,1.8-8.3,4.6h-75.9c-2.9,0-5.3,2.4-5.3,5.3C273.3,107.9,275.7,110.3,278.6,110.3z"/>
	<path class="st0" d="M435.2,234.8c-3.5,0-6.6,1.8-8.3,4.6h-39.6L348,278.7H223.4c-1.8-2.7-4.8-4.6-8.3-4.6c-5.4,0-9.9,4.4-9.9,9.9
		c0,5.4,4.4,9.9,9.9,9.9c3.5,0,6.6-1.8,8.3-4.6h129l39.3-39.3h35.2c1.8,2.7,4.8,4.6,8.3,4.6c5.4,0,9.9-4.4,9.9-9.9
		C445.1,239.2,440.7,234.8,435.2,234.8z"/>
	<path class="st0" d="M419.5,215.4c5.4,0,9.9-4.4,9.9-9.9c0-5.4-4.4-9.9-9.9-9.9c-3.5,0-6.6,1.8-8.3,4.6h-80.7l-25.6-25.6
		c-2.1-2.1-5.4-2.1-7.5,0c-2.1,2.1-2.1,5.4,0,7.5l28.7,28.7h85.1C413,213.6,416,215.4,419.5,215.4z"/>
	<path class="st0" d="M344.2,161.3c-5.4,0-9.9,4.4-9.9,9.9c0,5.4,4.4,9.9,9.9,9.9c3,0,5.6-1.3,7.4-3.4h88.2c2.9,0,5.3-2.4,5.3-5.3
		c0-2.9-2.4-5.3-5.3-5.3h-86.6C351.6,163.7,348.1,161.3,344.2,161.3z"/>
	<path class="st0" d="M334,235.2h-37.2L269.5,208h-79.8c-2.9,0-5.3,2.4-5.3,5.3s2.4,5.3,5.3,5.3h75.4l27.2,27.2H334
		c1.8,2.7,4.8,4.6,8.3,4.6c5.4,0,9.9-4.4,9.9-9.9c0-5.4-4.4-9.9-9.9-9.9C338.8,230.7,335.7,232.5,334,235.2z"/>
	<path class="st0" d="M254.6,333.1H339l19.8-19.8c2.1-2.1,2.1-5.4,0-7.5c-2.1-2.1-5.4-2.1-7.5,0l-16.7,16.7h-79.7
		c-1.7-2.9-4.9-4.8-8.5-4.8c-5.4,0-9.9,4.4-9.9,9.9c0,5.4,4.4,9.9,9.9,9.9C249.8,337.4,252.8,335.7,254.6,333.1z"/>
	<path class="st0" d="M219.6,156.3c-5.4,0-9.9,4.4-9.9,9.9c0,5.4,4.4,9.9,9.9,9.9c3.5,0,6.6-1.8,8.3-4.6h45.5l28.2-28.2h89.7
		c2.9,0,5.3-2.4,5.3-5.3c0-2.9-2.4-5.3-5.3-5.3h-94.1L269,160.8h-41.1C226.1,158.1,223.1,156.3,219.6,156.3z"/>
</g>
</svg>
